<?xml version="1.0" standalone="no"?>
<!DOCTYPE svg PUBLIC "-//W3C//DTD SVG 20010904//EN"
 "http://www.w3.org/TR/2001/REC-SVG-20010904/DTD/svg10.dtd">
<svg version="1.0" xmlns="http://www.w3.org/2000/svg"
 width="1172.000000pt" height="1172.000000pt" viewBox="0 0 1172.000000 1172.000000"
 preserveAspectRatio="xMidYMid meet">
<metadata>
Created by potrace 1.14, written by Peter Selinger 2001-2017
</metadata>
<g transform="translate(0.000000,1172.000000) scale(0.100000,-0.100000)"
fill="#000000" stroke="none">
<path d="M5300 11694 c-70 -12 -111 -29 -138 -58 -57 -60 -57 -60 -57 -671 0
-615 1 -623 59 -681 58 -58 67 -59 671 -59 602 0 609 1 671 58 64 60 66 86 62
690 -5 585 -7 607 -67 668 -52 52 -64 53 -641 55 -294 1 -546 0 -560 -2z"/>
<path d="M3460 11203 c-38 -7 -160 -66 -253 -121 -45 -27 -203 -118 -352 -202
-377 -212 -461 -273 -486 -347 -27 -83 32 -212 267 -588 83 -132 177 -285 208
-340 115 -198 163 -245 249 -245 71 0 129 28 527 255 412 234 481 277 545 336
112 103 92 172 -190 654 -171 293 -282 468 -336 529 -52 60 -109 82 -179 69z"/>
<path d="M8092 11180 c-50 -30 -105 -114 -328 -495 -264 -452 -297 -519 -302
-605 -7 -123 19 -144 573 -460 446 -255 480 -272 552 -273 44 -1 58 3 90 29
60 48 91 96 330 505 257 440 292 508 300 582 9 87 -23 133 -157 224 -84 57
-786 453 -864 488 -71 31 -147 33 -194 5z"/>
<path d="M1117 9300 c-55 -49 -109 -129 -213 -315 -42 -77 -136 -243 -207
-370 -171 -303 -191 -346 -192 -416 0 -112 29 -136 520 -421 486 -282 557
-316 636 -303 52 9 113 64 175 161 83 128 454 782 485 854 35 81 38 157 9 205
-35 56 -152 135 -510 345 -438 257 -524 300 -600 300 -53 0 -61 -3 -103 -40z"/>
<path d="M10279 9282 c-140 -72 -732 -419 -814 -478 -75 -53 -125 -101 -136
-132 -15 -38 -10 -98 11 -155 18 -49 273 -505 440 -787 128 -216 187 -269 287
-254 64 9 234 98 598 311 376 221 430 257 474 313 31 42 33 48 28 106 -7 87
-24 120 -417 810 -156 274 -203 324 -301 324 -49 0 -71 -8 -170 -58z"/>
<path d="M5945 8931 c-27 -64 -309 -732 -628 -1486 -319 -753 -600 -1419 -624
-1480 -25 -60 -310 -737 -635 -1503 -324 -766 -588 -1397 -586 -1403 2 -6 64
-37 138 -69 74 -33 149 -67 165 -76 73 -41 520 -233 526 -227 4 5 32 69 62
143 30 74 312 743 627 1485 315 743 596 1409 625 1480 29 72 60 145 68 164
l15 35 38 -75 c21 -41 48 -94 59 -119 12 -25 229 -439 482 -920 911 -1732 987
-1877 1056 -2015 38 -77 73 -145 78 -151 7 -8 55 13 167 74 86 46 180 99 207
116 28 18 137 79 243 136 106 57 191 107 190 111 -2 3 -330 629 -729 1390
-629 1198 -1044 1990 -1267 2419 l-60 115 334 790 c184 434 334 795 334 801 0
6 -55 35 -122 64 -68 29 -150 66 -183 82 -33 17 -166 77 -296 133 l-236 102
-48 -116z"/>
<path d="M191 6589 c-77 -13 -127 -45 -151 -94 -19 -40 -20 -62 -20 -641 l0
-600 23 -44 c51 -102 143 -115 792 -106 527 7 556 12 604 97 37 66 43 166 38
705 -4 540 -6 558 -53 621 -49 65 -66 67 -654 69 -289 1 -549 -2 -579 -7z"/>
<path d="M10395 6593 c-117 -16 -168 -51 -196 -138 -17 -52 -25 -990 -10
-1124 13 -115 37 -163 99 -193 39 -19 72 -22 256 -30 248 -11 874 -2 946 13
111 24 146 74 160 230 11 123 12 646 1 910 -7 168 -10 190 -32 234 -29 59 -66
80 -164 94 -66 10 -992 13 -1060 4z"/>
<path d="M1560 4226 c-66 -25 -144 -68 -522 -289 -420 -245 -480 -287 -509
-353 -36 -80 -12 -149 144 -421 41 -70 116 -204 167 -298 112 -205 210 -365
255 -421 68 -82 140 -92 265 -36 55 25 623 351 775 445 85 53 182 130 206 166
29 42 29 114 -1 190 -11 30 -98 190 -192 355 -281 494 -368 625 -439 661 -34
18 -101 18 -149 1z"/>
<path d="M9952 4220 c-44 -27 -73 -60 -127 -142 -69 -105 -466 -806 -492 -868
-13 -31 -23 -76 -23 -105 0 -113 48 -151 610 -476 399 -232 445 -254 521 -254
96 0 146 55 305 337 384 679 396 703 410 773 16 85 -23 147 -143 227 -113 75
-701 416 -812 471 -125 61 -194 72 -249 37z"/>
<path d="M3015 2352 c-74 -47 -92 -74 -383 -577 -276 -478 -293 -519 -254
-607 33 -76 80 -107 621 -415 358 -204 414 -232 483 -240 86 -10 153 49 258
227 83 141 312 535 363 625 112 198 135 293 89 367 -42 67 -110 111 -687 438
-279 158 -346 191 -408 196 -40 4 -59 1 -82 -14z"/>
<path d="M8500 2347 c-69 -29 -116 -54 -490 -266 -532 -302 -563 -328 -547
-467 7 -65 69 -187 292 -569 224 -386 257 -436 314 -488 47 -42 76 -52 131
-43 62 10 126 42 426 211 531 300 641 372 670 442 39 93 0 183 -263 613 -66
107 -157 260 -202 340 -139 244 -196 283 -331 227z"/>
<path d="M5324 1490 c-96 -10 -156 -37 -184 -82 -37 -61 -41 -141 -37 -694 3
-563 4 -576 53 -634 50 -58 68 -60 679 -60 603 0 624 2 677 57 54 56 58 100
58 628 0 589 -7 661 -73 733 -47 51 -83 55 -607 58 -267 1 -522 -2 -566 -6z"/>
</g>
</svg>
