<svg xmlns="http://www.w3.org/2000/svg" xmlns:xlink="http://www.w3.org/1999/xlink" data-v-2ae09346="" version="1.0" width="100%" height="100%" viewBox="0 0 340.000000 250.000000" preserveAspectRatio="xMidYMid meet" color-interpolation-filters="sRGB" class="el-tooltip" style="margin: auto;"><rect data-v-2ae09346="" x="0" y="0" width="100%" height="100%" fill="#cc3333" fill-opacity="1" class="background"/> <rect data-v-2ae09346="" x="0" y="0" width="100%" height="100%" fill="url(#watermark)" fill-opacity="1" class="watermarklayer"/> <g data-v-2ae09346="" fill="#ffffff" class="icon-text-wrapper icon-svg-group iconsvg" transform="translate(104.4800033569336,62.05900573730469)"><g class="iconsvg-imagesvg font-path" transform="translate(35.519996643066406,0)"><rect fill="#ffffff" fill-opacity="0" stroke-width="2" x="0" y="0" width="60" height="59.999990853873" class="image-rect"/> <svg filter="url(#colors4908014325)" viewBox="0 0 60 59.99999085387324" x="0" y="0" width="60" height="59.999990853873" filtersec="colorsf9414287352" class="image-svg-svg"><g><svg xmlns="http://www.w3.org/2000/svg" xmlns:xlink="http://www.w3.org/1999/xlink" version="1.1" x="0" y="0" viewBox="16.89999771118164 -18 100.10000610351562 100.09999084472656" enable-background="new 17 -18 100 100" xml:space="preserve" width="60" height="59.99999085387324"><path d="M90.2-12.3c-3.6-2.1-3.6-2.1-5.7,1.5l-2.1,3.6c-2.1,3.7-2.1,3.7,1.5,5.8l3.7,2.1c3.6,2.1,3.6,2.1,5.7-1.6l2.1-3.6  c2.1-3.6,2.1-3.6-1.5-5.7L90.2-12.3z M112.8,25.8h-4.2c-4.2,0-4.2,0-4.2,4.2v4.2c0,4.2,0,4.2,4.2,4.2h4.2c4.2,0,4.2,0,4.2-4.2v-4.2  C117,25.8,117,25.8,112.8,25.8z M69.1-18h-4.2c-4.2,0-4.2,0-4.2,4.2v4.2c0,4.2,0,4.2,4.2,4.2h4.2c4.2,0,4.2,0,4.2-4.2v-4.2  C73.2-18,73.2-18,69.1-18z M43.8-12.3l-3.7,2.1c-3.6,2.1-3.6,2.1-1.5,5.7L40.8-1c2.1,3.7,2.1,3.7,5.7,1.6l3.7-2.1  c3.6-2.1,3.6-2.1,1.5-5.8l-2.1-3.6C47.4-14.4,47.4-14.4,43.8-12.3z M106.2,47.4c-3.7-2.1-3.7-2.1-5.8,1.5l-2.1,3.7  c-2.1,3.6-2.1,3.6,1.6,5.7l3.6,2.1c3.6,2.1,3.6,2.1,5.7-1.5l2.1-3.7c2.1-3.6,2.1-3.6-1.5-5.7L106.2,47.4z M87.6,63.4l-3.7,2.1  c-3.6,2.1-3.6,2.1-1.5,5.8l2.1,3.6c2.1,3.6,2.1,3.6,5.7,1.5l3.7-2.1c3.6-2.1,3.6-2.1,1.5-5.7L93.2,65C91.2,61.3,91.2,61.3,87.6,63.4  z M30.4,3.7c-3.6-2.1-3.6-2.1-5.7,1.5l-2.1,3.7c-2.1,3.6-2.1,3.6,1.5,5.7l3.6,2.1c3.7,2.1,3.7,2.1,5.8-1.5l2.1-3.7  c2.1-3.6,2.1-3.6-1.6-5.7L30.4,3.7z M25.3,25.8h-4.2c-4.2,0-4.2,0-4.2,4.2v4.2c0,4.2,0,4.2,4.2,4.2h4.2c4.2,0,4.2,0,4.2-4.2v-4.2  C29.5,25.8,29.5,25.8,25.3,25.8z M69.1,69.5h-4.2c-4.2,0-4.2,0-4.2,4.2v4.2c0,4.2,0,4.2,4.2,4.2h4.2c4.2,0,4.2,0,4.2-4.2v-4.2  C73.2,69.5,73.2,69.5,69.1,69.5z M27.8,47.4l-3.6,2.1c-3.6,2.1-3.6,2.1-1.5,5.7l2.1,3.7c2.1,3.6,2.1,3.6,5.7,1.5l3.6-2.1  c3.7-2.1,3.7-2.1,1.6-5.7l-2.1-3.7C31.4,45.3,31.4,45.3,27.8,47.4z M46.4,63.4c-3.6-2.1-3.6-2.1-5.7,1.6l-2.1,3.6  c-2.1,3.6-2.1,3.6,1.5,5.7l3.7,2.1c3.6,2.1,3.6,2.1,5.7-1.5l2.1-3.6c2.1-3.7,2.1-3.7-1.5-5.8L46.4,63.4z M103.6,3.7L100,5.8  c-3.7,2.1-3.7,2.1-1.6,5.7l2.1,3.7c2.1,3.6,2.1,3.6,5.8,1.5l3.6-2.1c3.6-2.1,3.6-2.1,1.5-5.7l-2.1-3.7  C107.2,1.6,107.2,1.6,103.6,3.7z"/></svg><g transform="translate(19.237499999999997,15.15999542693662)" stroke-width="2.2" stroke="red"><g transform="translate(0, 0)"><g><path d="M12.46-16.87L21.91 1.09L24.05-0.07L13.69-19.74L16.94-27.44L14.67-28.42L2.52 0.28L4.76 1.26Z" transform="translate(-2.52, 28.42)"/></g></g></g></g></svg> <defs><filter id="colors4908014325"><feColorMatrix type="matrix" values="0 0 0 0 0.99609375  0 0 0 0 0.99609375  0 0 0 0 0.99609375  0 0 0 1 0" class="icon-fecolormatrix"/></filter> <filter id="colorsf9414287352"><feColorMatrix type="matrix" values="0 0 0 0 0.99609375  0 0 0 0 0.99609375  0 0 0 0 0.99609375  0 0 0 1 0" class="icon-fecolormatrix"/></filter> <filter id="colorsb429399639"><feColorMatrix type="matrix" values="0 0 0 0 0  0 0 0 0 0  0 0 0 0 0  0 0 0 1 0" class="icon-fecolormatrix"/></filter></defs></g> <g transform="translate(0,66.99999237060547)" mask="url(#0746de97-0546-4dd7-a503-7608e33ed88e)"><g fill-rule="" class="tp-name iconsvg-namesvg" transform="translate(0,0)"><g><path d="M16.02-21.69L28.17 1.40L30.91-0.09L17.59-25.38L21.78-35.28L18.86-36.54L3.24 0.36L6.12 1.62ZM53.64-1.35L53.19-4.46L43.38-3.06L43.38-11.79L54.41-11.79C55.75-6.34 57.60-1.03 59.63 3.24L62.46 1.89C60.61-1.98 58.95-6.79 57.64-11.79L63.45-11.79L63.45-14.94L56.88-14.94C56.34-17.37 55.94-19.80 55.62-22.14L61.33-22.14L61.33-34.47L40.23-34.47L40.23 0.58ZM43.38-31.32L58.19-31.32L58.19-25.29L43.38-25.29ZM52.38-22.14C52.70-19.80 53.14-17.37 53.69-14.94L43.38-14.94L43.38-22.14ZM97.20-34.52L71.55-34.52L71.55 2.70L74.70 2.70L74.70-31.36L94.05-31.36L94.05 2.70L97.20 2.70ZM93.60-6.79L90.36-14.26C91.48-18.95 92.47-23.94 93.15-28.08L90.05-28.57C89.55-25.74 88.97-22.50 88.25-19.21L85.72-25.15L84.38-24.57C84.60-25.92 84.78-27.13 84.91-28.21L81.81-28.57C81.50-26.05 80.95-22.81 80.28-19.35L77.85-25.11L74.97-23.89L79.11-14.04C78.08-9.86 76.91-5.80 75.64-3.01L78.53-1.71C79.47-3.78 80.33-6.43 81.14-9.27L82.71-5.54L85.05-6.48C84.60-5.08 84.19-3.87 83.79-2.92L86.67-1.71C87.44-3.51 88.29-6.17 89.10-9.27L90.72-5.54ZM82.39-14.31C82.98-16.74 83.43-19.17 83.84-21.42L87.08-13.99C86.49-11.61 85.91-9.36 85.32-7.42ZM114.75-8.37C115.83-9.13 116.86-9.90 117.86-10.75L117.86 1.26L129.28 1.26L129.28-10.93L118.03-10.93C120.24-12.78 122.13-14.80 123.70-16.96C126.36-14.04 129.28-11.43 132.48-9.27L134.28-11.88C131.09-14.04 128.12-16.70 125.50-19.66C127.58-23.13 129.01-26.95 129.69-31.09L130.00-32.89L121.77-32.89L123.48-36.31L120.64-37.66L114.57-25.38L111.60-26.50L109.89-22.14L107.01-23.80L111.73-35.32L108.81-36.54L103.05-22.41L108.77-19.17L105.93-11.92L101.97-10.57L103.00-7.60L113.27-11.16L112.95-10.93ZM117.81-24.84C118.98-22.95 120.24-21.11 121.63-19.39C119.79-16.79 117.50-14.40 114.75-12.24L113.89-14.71L109.80-13.28L113.58-22.90L116.23-21.60ZM114.97-3.19L113.94-6.17L102.19-2.02L103.23 0.94ZM121.00-7.79L126.13-7.79L126.13-1.89L121.00-1.89ZM123.39-22.23C121.95-24.12 120.64-26.14 119.47-28.21L120.24-29.74L126.22-29.74C125.59-27.09 124.69-24.57 123.39-22.23Z" transform="translate(-3.24, 37.665)"/></g> <!----> <!----> <!----> <!----> <!----> <!----> <g fill="#cc3333" transform="translate(134.0399932861328,0)"/></g> <g fill-rule="" hollow-target="t-name" class="tp-slogan iconsvg-slogansvg" fill="#ffffff" transform="translate(0,47.900001525878906)"><rect x="0" height="1" y="4.990000247955322" width="5.999996185302734"/> <rect height="1" y="4.990000247955322" width="5.999996185302734" x="125.03999710083008"/> <g transform="translate(8.999996185302734,0)"><g transform="scale(.88)"><path d="M1.64-2.94L1.64 0.71L2.48 0.71L2.48-3.16L3.77-3.50L3.55-4.32L2.48-4.03L2.48-6.71L3.54-6.71L3.54-7.55L2.48-7.55L2.48-9.83L1.64-9.83L1.64-7.55L0.44-7.55L0.44-6.71L1.64-6.71L1.64-3.80L0.25-3.43L0.47-2.63ZM8.70-9.06L3.98-9.06L3.98-8.22L5.92-8.22L5.92 0.72L6.76 0.72L6.76-8.22L8.70-8.22ZM11.62-6.13L11.62 0.71L12.46 0.71L12.46-8.35L12.99-9.74L12.20-10.04L10.12-4.57L10.91-4.27ZM18.35-9.71L17.51-9.71L17.51 0.71L18.35 0.71ZM16.97-9.71L16.13-9.71L16.13 0.02L16.97 0.02ZM15.78-9.26L12.90-9.26L12.90-8.42L13.43-8.42L12.83-5.76L15.99-5.76L15.50-8.03L14.68-7.85L14.94-6.60L13.89-6.60L14.31-8.42L15.78-8.42ZM15.72-3.68L14.76-3.68L14.76-5.28L13.92-5.28L13.92-3.68L12.95-3.68L12.95-2.84L13.92-2.84L13.92-1.13L12.83-1.04L12.89-0.22L15.84-0.44L15.78-1.28L14.76-1.20L14.76-2.84L15.72-2.84ZM22.24-6.08L22.24-4.69L21.98-4.79L21.57-3.61L20.32-3.61L20.32-2.77L21.30-2.77L20.94-1.70L22.09-1.01C21.56-0.62 20.95-0.35 20.31-0.30L20.38 0.53C21.30 0.46 22.15 0.02 22.84-0.55L23.95 0.12L24.39-0.59L23.46-1.15C23.92-1.68 24.26-2.26 24.39-2.77L24.94-2.77L24.94-3.38L25.02-3.37L25.29-4.40C25.51-3.76 25.77-3.08 26.06-2.44C25.68-1.57 25.17-0.73 24.54 0.02L25.18 0.56C25.69-0.04 26.13-0.72 26.52-1.45C26.94-0.61 27.37 0.10 27.74 0.54L28.39 0C27.97-0.49 27.46-1.40 26.98-2.44C27.55-3.78 27.90-5.24 27.98-6.70L28.65-6.70L28.65-7.54L26.14-7.54L26.77-9.80L25.95-10.03L24.20-3.61L22.46-3.61L22.77-4.52L22.52-4.61L23.08-4.61L23.08-6.08L23.97-5.05L24.61-5.59L23.41-7.00L24.88-7.00L24.88-7.84L24.26-7.84L24.64-9.55L23.83-9.73L23.41-7.84L23.08-7.84L23.08-10.04L22.24-10.04L22.24-7.84L21.92-7.84L21.48-9.74L20.66-9.55L21.07-7.84L20.30-7.84L20.30-7.00L21.92-7.00L20.14-5.02L20.77-4.45ZM26.50-3.56C26.17-4.43 25.88-5.29 25.72-5.99L25.92-6.70L27.14-6.70C27.08-5.76 26.89-4.68 26.50-3.56ZM23.52-2.77C23.38-2.40 23.11-1.98 22.75-1.58L21.94-2.08L22.17-2.77ZM34.54-6.38L37.90-6.38L37.90-9.26L33.80-9.26L33.41 0.66L34.25 0.70ZM38.27-4.78L36.92-4.78L36.92-5.84L36.08-5.84L36.08-4.78L34.82-4.78L34.82-3.94L36.08-3.94L36.08-2.64L35.17-2.64L35.17 0.38L37.85 0.38L37.85-2.64L36.92-2.64L36.92-3.94L38.27-3.94ZM33.08-7.51L32.21-7.51L32.21-9.68L31.37-9.68L31.37-7.51L30.38-7.51L30.38-6.67L31.37-6.67L31.37-3.89L30.13-3.53L30.37-2.72L31.37-3.02L31.37 0.73L32.21 0.73L32.21-3.28L33.23-3.58L32.99-4.38L32.21-4.14L32.21-6.67L33.08-6.67ZM34.61-8.42L37.06-8.42L37.06-7.22L34.56-7.22ZM36.01-1.80L37.01-1.80L37.01-0.46L36.01-0.46ZM44.57-5.10L44.00-5.10L44.00-5.45L43.16-5.45L43.16-5.10L42.17-5.10L42.17-5.45L41.33-5.45L41.33-5.10L40.58-5.10L40.58-4.26L41.33-4.26L41.33-3.20L42.21-3.20L42.21-3.04L40.78-3.04L40.78-1.21L42.21-1.21L42.21-0.85L40.66-0.85L40.66-0.01L42.21-0.01L42.21 0.89L43.05 0.89L43.05-0.01L44.52-0.01L44.52-0.85L43.05-0.85L43.05-1.21L44.46-1.21L44.46-3.04L43.05-3.04L43.05-3.20L44.00-3.20L44.00-4.26L44.57-4.26ZM48.05-9.61L40.77-9.61L40.77-8.77L43.96-8.77L43.96-8.34L40.98-8.34L40.98-5.62L41.82-5.62L41.82-7.50L43.96-7.50L43.96-5.60L44.80-5.60L44.80-7.50L46.95-7.50L46.95-5.62L47.79-5.62L47.79-8.34L44.80-8.34L44.80-8.77L48.05-8.77ZM47.62-5.24L45.02-5.24L45.02 0.89L45.86 0.89L45.86-0.72L46.78-0.72L46.78 0.89L47.62 0.89ZM45.86-2.60L46.78-2.60L46.78-1.56L45.86-1.56ZM46.47-7.27L45.41-7.27L45.41-6.43L46.47-6.43ZM46.47-6.32L45.41-6.32L45.41-5.48L46.47-5.48ZM46.78-3.44L45.86-3.44L45.86-4.40L46.78-4.40ZM43.31-6.32L42.27-6.32L42.27-5.48L43.31-5.48ZM43.31-7.27L42.27-7.27L42.27-6.43L43.31-6.43ZM42.17-4.04L42.17-4.26L43.16-4.26L43.16-4.04ZM41.62-2.20L42.21-2.20L42.21-2.05L41.62-2.05ZM43.05-2.05L43.05-2.20L43.62-2.20L43.62-2.05ZM52.76-5.27L53.78-2.99L54.55-3.34L52.93-6.95L53.80-6.95L53.80-7.79L52.76-7.79L52.76-10.09L51.92-10.09L51.92-7.79L50.67-7.79L50.67-6.95L51.84-6.95L50.07-2.48L50.85-2.17L51.92-4.86L51.92 0.53L52.76 0.53ZM54.28 0.64C55.06-0.08 55.72-0.90 56.26-1.80C56.78-0.78 57.34 0.11 57.90 0.61L58.46-0.01C57.90-0.52 57.28-1.55 56.77-2.70C57.56-4.33 58.02-6.22 58.11-8.34L58.14-8.78L54.31-8.78L54.31-7.94L57.25-7.94C57.14-6.41 56.83-5.02 56.32-3.77C55.82-5.06 55.47-6.38 55.45-7.24L54.61-7.20C54.64-6.08 55.15-4.33 55.83-2.74C55.28-1.70 54.58-0.78 53.72 0.01ZM63.88-4.84L63.88-3.67L64.78-3.67L64.78-4.84ZM77.58-9.20L70.74-9.20L70.74 0.72L71.58 0.72L71.58-8.36L76.74-8.36L76.74 0.72L77.58 0.72ZM76.62-1.81L75.76-3.80C76.06-5.05 76.32-6.38 76.50-7.49L75.67-7.62C75.54-6.86 75.38-6 75.19-5.12L74.52-6.71L74.16-6.55C74.22-6.91 74.27-7.24 74.30-7.52L73.48-7.62C73.39-6.95 73.25-6.08 73.07-5.16L72.42-6.70L71.65-6.37L72.76-3.74C72.48-2.63 72.17-1.55 71.83-0.80L72.60-0.46C72.85-1.01 73.08-1.72 73.30-2.47L73.72-1.48L74.34-1.73C74.22-1.36 74.11-1.03 74.00-0.78L74.77-0.46C74.98-0.94 75.20-1.64 75.42-2.47L75.85-1.48ZM73.63-3.82C73.79-4.46 73.91-5.11 74.02-5.71L74.88-3.73C74.72-3.10 74.57-2.50 74.41-1.98ZM83.26-2.23C83.55-2.44 83.82-2.64 84.09-2.87L84.09 0.34L87.14 0.34L87.14-2.92L84.14-2.92C84.72-3.41 85.23-3.95 85.65-4.52C86.36-3.74 87.14-3.05 87.99-2.47L88.47-3.17C87.62-3.74 86.82-4.45 86.13-5.24C86.68-6.17 87.06-7.19 87.24-8.29L87.33-8.77L85.13-8.77L85.59-9.68L84.83-10.04L83.21-6.77L82.42-7.07L81.96-5.90L81.20-6.35L82.46-9.42L81.68-9.74L80.14-5.98L81.66-5.11L80.91-3.18L79.85-2.82L80.13-2.03L82.86-2.98L82.78-2.92ZM84.08-6.62C84.39-6.12 84.72-5.63 85.10-5.17C84.60-4.48 83.99-3.84 83.26-3.26L83.03-3.92L81.94-3.54L82.95-6.11L83.66-5.76ZM83.32-0.85L83.04-1.64L79.91-0.54L80.19 0.25ZM84.93-2.08L86.30-2.08L86.30-0.50L84.93-0.50ZM85.56-5.93C85.18-6.43 84.83-6.97 84.52-7.52L84.72-7.93L86.32-7.93C86.15-7.22 85.91-6.55 85.56-5.93ZM97.46-5.98L94.53-5.98L94.53-9.96L93.69-9.96L93.69-5.98L90.76-5.98L90.76-5.14L93.69-5.14L93.69-0.77L90.21-0.77L90.21 0.07L98.02 0.07L98.02-0.77L94.53-0.77L94.53-5.14L97.46-5.14ZM107.92-6.71L106.28-6.41L106.28-9.94L105.44-9.94L105.44-6.25L104.66-6.11L104.66-9.02L103.82-9.02L103.82-5.96L102.98-5.81L103.14-4.98L103.82-5.10L103.82 0.25L108.30 0.25L108.30-0.59L104.66-0.59L104.66-5.26L105.44-5.40L105.44-1.58L106.28-1.58L106.28-5.56L107.08-5.70L107.08-2.41L107.92-2.41ZM102.91-6.62L101.99-6.62L101.99-9.72L101.15-9.72L101.15-6.62L100.08-6.62L100.08-5.78L101.15-5.78L101.15-2.44L99.88-2.38L99.92-1.54L103.18-1.69L103.14-2.53L101.99-2.47L101.99-5.78L102.91-5.78ZM114.45-1.20L117.96-1.20L117.96-2.04L114.45-2.04L114.45-2.96L116.84-2.96L116.84-5.65L114.45-5.65L114.45-6.37L116.22-6.37L116.22-8.10L117.86-8.10L117.86-8.94L116.22-8.94L116.22-9.94L115.38-9.94L115.38-8.94L112.66-8.94L112.66-9.94L111.82-9.94L111.82-8.94L110.15-8.94L110.15-8.10L111.82-8.10L111.82-6.37L113.61-6.37L113.61-5.65L111.18-5.65L111.18-2.96L113.61-2.96L113.61-2.04L110.06-2.04L110.06-1.20L113.61-1.20L113.61 0.71L114.45 0.71ZM112.66-7.21L112.66-8.10L115.38-8.10L115.38-7.21ZM112.02-4.81L113.61-4.81L113.61-3.80L112.02-3.80ZM114.45-3.80L114.45-4.81L116.00-4.81L116.00-3.80ZM123.64-4.21L120.99-4.21L120.99-0.67L123.64-0.67ZM128.36-6.12L124.23-9.53L120.07-6.23L120.60-5.58L124.22-8.45L127.83-5.47ZM125.36-3.37L126.49-3.37L126.49-0.32L127.33-0.32L127.33-4.21L124.52-4.21L124.52 0.70L125.36 0.70ZM126.44-6.08L121.90-6.08L121.90-5.24L126.44-5.24ZM121.83-3.37L122.80-3.37L122.80-1.51L121.83-1.51Z" transform="translate(-0.252, 10.092)"/></g>
</g></g></g></g></svg>
