<?xml version="1.0" standalone="no"?><!DOCTYPE svg PUBLIC "-//W3C//DTD SVG 1.1//EN" "http://www.w3.org/Graphics/SVG/1.1/DTD/svg11.dtd"><svg t="1623939672961" class="icon" viewBox="0 0 1024 1024" version="1.1" xmlns="http://www.w3.org/2000/svg" p-id="40557" xmlns:xlink="http://www.w3.org/1999/xlink" width="512" height="512"><defs><style type="text/css">@font-face { font-weight: 400; font-style: normal; font-family: Circular-Loom; src: url("https://cdn.loom.com/assets/fonts/circular/CircularXXWeb-Book-cd7d2bcec649b1243839a15d5eb8f0a3.woff2") format("woff2"); }
@font-face { font-weight: 500; font-style: normal; font-family: Circular-Loom; src: url("https://cdn.loom.com/assets/fonts/circular/CircularXXWeb-Medium-d74eac43c78bd5852478998ce63dceb3.woff2") format("woff2"); }
@font-face { font-weight: 700; font-style: normal; font-family: Circular-Loom; src: url("https://cdn.loom.com/assets/fonts/circular/CircularXXWeb-Bold-83b8ceaf77f49c7cffa44107561909e4.woff2") format("woff2"); }
@font-face { font-weight: 900; font-style: normal; font-family: Circular-Loom; src: url("https://cdn.loom.com/assets/fonts/circular/CircularXXWeb-Black-bf067ecb8aa777ceb6df7d72226febca.woff2") format("woff2"); }
</style></defs><path d="M359.44054 512m-72.96 0a72.96 72.96 0 1 0 145.92 0 72.96 72.96 0 1 0-145.92 0Z" fill="#FF9041" p-id="40558"></path><path d="M664.56054 512m-72.96 0a72.96 72.96 0 1 0 145.92 0 72.96 72.96 0 1 0-145.92 0Z" fill="#FF9041" p-id="40559"></path><path d="M1009.30054 388.74c-28.24-115.14-97.5-215.86-191.6-287.22S603.26054-5.7 485.58054 0.74A517.68 517.68 0 0 0 163.38054 136.6c-85.26 78.56-142.82 187.28-158.48 302.14-18.36 134.52 14.98 273.36 98.16 381.62a566.16 566.16 0 0 0 43.46 50.44l-67.84 94c-18 24.9 6.3 59.14 34 59.14h370c21.68 0 43.38 0.28 65.02-1.34a526.78 526.78 0 0 0 178.98-45.88c103.86-46.98 191.58-131.9 242.56-233.72a518.2 518.2 0 0 0 40.06-354.26zM345.12054 111.28a24 24 0 0 0-3.38 1.58 9.52 9.52 0 0 1 3.38-1.58z m-96.26 55.46a31.14 31.14 0 0 0-3.22 2.66 8.9 8.9 0 0 1 3.22-2.66zM854.74054 778a14.86 14.86 0 0 0 1.56-1.8 6.88 6.88 0 0 1-1.56 1.8z m56.58-96a13.36 13.36 0 0 0 1.04-2.12 6.44 6.44 0 0 1-1.04 2.12z m33.02-135.52q-0.72 10.2-1.9 20.34c-0.16 1.5-0.46 3.06-0.58 4.58-0.46 3-0.9 6-1.42 9.02a468.24 468.24 0 0 1-20.22 78.32q-3.28 9.28-6.92 18.42c-0.12 0.3-0.28 0.78-0.46 1.32s-0.36 0.78-0.6 1.34c-1.42 3.2-2.8 6.38-4.26 9.54q-8.44 18.3-18.38 35.84t-21.26 34q-5.14 7.48-10.5 14.7c-0.12 0.16-0.38 0.56-0.7 1.08s-0.58 0.68-1 1.22c-2.14 2.68-4.28 5.38-6.46 8A475.08 475.08 0 0 1 794.00054 841.24q-7.28 6.36-14.86 12.38l-3.02 2.4c-5.56 4.42 1.58-0.92 1.82-1.42-1.2 2.4-7.12 5.32-9.32 6.9q-16.26 11.74-33.46 22-16.68 10-34.18 18.64-8.76 4.32-17.72 8.28l-4.78 2c-4 1.82 3.44-1.5 3.36-1.42-1.72 2-8.58 3.46-10.94 4.36a470.3 470.3 0 0 1-77.52 22.32c-6.6 1.3-13.2 2.46-19.86 3.48l-3.48 0.52c-3.4 0.38-6.82 0.8-10.24 1.14q-21.18 2.12-42.48 2.38H189.28054l42.96-59.54a39.42 39.42 0 0 0-5.14-46.68 35.52 35.52 0 0 0-4.88-4.48c-10.16-9.22-20-18.8-29.3-28.84q-7.66-8.22-14.9-16.8c-2.26-2.66-4.48-5.36-6.66-8-1.2-1.5-2.38-3-3.58-4.48l-0.42-0.56a495.06 495.06 0 0 1-47.72-78.2q-2.64-5.44-5.14-10.96L112.00054 681.42c-2.88-6.72-5.42-13.62-7.88-20.48a470.88 470.88 0 0 1-13.74-45.52q-2.8-11.28-5.04-22.7c-1.5-7.68-4.4-16.78-4.14-24.62 0 0.26 0.88 7.3 0.38 2.66-0.22-2.1-0.5-4.18-0.74-6.26-0.4-3.66-0.76-7.34-1.08-11q-1.12-12.7-1.54-25.44-0.74-22.5 0.62-45 0.6-10.22 1.66-20.4c0.3-2.94 0.68-5.86 1-8.8 0.24-1.64 0.48-3.26 0.74-4.9a469.3 469.3 0 0 1 19.78-79.9c2-5.8 4.1-11.56 6.3-17.26 0.84-2.14 2.2-8.2 3.9-9.72 0 0-3.24 7.4-1.42 3.36 0.88-2 1.72-4 2.6-6q8.22-18.38 18-36t20.9-34.24q5.04-7.5 10.36-14.82c1.48-2 4-7.18 6.16-8.28-0.5 0.26-5.86 7.38-1.42 1.84 1.06-1.34 2.12-2.7 3.2-4a475.32 475.32 0 0 1 55.04-57.74q7.22-6.38 14.7-12.52c2.34-2 4.7-3.76 7.06-5.64l2-1.54c0.54-0.34 1.06-0.64 1.42-0.9q16.12-12 33.2-22.42 16.56-10.18 34-19 8.72-4.4 17.62-8.46c2.76-1.26 5.56-2.48 8.34-3.72 1.08-0.46 1.74-0.76 2.1-0.94 0.72-0.22 1.38-0.42 1.8-0.6a473.08 473.08 0 0 1 78.46-23.44q9.88-2 19.8-3.64l6.42-0.96c2.4-0.18 4.88-0.64 7.24-0.9q20.42-2.22 41-2.7 21.42-0.48 42.8 0.92 10.2 0.66 20.38 1.78c2 0.2 11.6 1.04 5.54 0.6s0 0 1.46 0.24q3.34 0.48 6.66 1.02a469.68 469.68 0 0 1 78.56 19.78q9.34 3.22 18.48 6.82l4.86 2a8.4 8.4 0 0 0 2 0.54c1.88 0.9 3.74 2 5.42 2.72q18.36 8.3 36 18.16t34.16 21.06q7.48 5.06 14.76 10.42c2.36 1.74 11.6 6.68 2.34 1.64a61.36 61.36 0 0 1 8 6.4 476.76 476.76 0 0 1 57.48 55.3q6.36 7.26 12.44 14.76a54.76 54.76 0 0 1 5.44 6.8c-0.94-1.4-5.02-6.64-1.28-1.54 1.28 1.74 2.58 3.46 3.84 5.18q11.86 16.16 22.26 33.3 10.12 16.62 18.84 34 4.38 8.74 8.38 17.64c0.6 1.34 1.46 2.88 2.2 4.42a10.66 10.66 0 0 0 0.52 1.8c0.8 2 1.62 4 2.42 6a469.3 469.3 0 0 1 23.04 78.58q2 9.86 3.52 19.8c0.24 1.56 1.22 11.08 0.88 6.1 0.3 2.52 0.6 5.06 0.86 7.6a476.2 476.2 0 0 1 2.48 41.02q0.34 21.4-1.2 42.72z" fill="#3390FF" p-id="40560"></path></svg>