<svg data-v-2ae09346="" version="1.0" xmlns="http://www.w3.org/2000/svg" xmlns:xlink="http://www.w3.org/1999/xlink" width="100%" height="100%" viewBox="0 0 340.000000 250.000000" preserveAspectRatio="xMidYMid meet" color-interpolation-filters="sRGB" class="el-tooltip" style="margin: auto;"><rect data-v-2ae09346="" x="0" y="0" width="100%" height="100%" fill="#cc3333" fill-opacity="1" class="background"></rect> <rect data-v-2ae09346="" x="0" y="0" width="100%" height="100%" fill="url(#watermark)" fill-opacity="1" class="watermarklayer"></rect> <g data-v-2ae09346="" fill="#ffffff" class="icon-text-wrapper icon-svg-group iconsvg" transform="translate(104.4800033569336,62.05900573730469)"><g class="iconsvg-imagesvg font-path" transform="translate(35.519996643066406,0)"><rect fill="#ffffff" fill-opacity="0" stroke-width="2" x="0" y="0" width="60" height="59.999990853873" class="image-rect"></rect> <svg filter="url(#colors4908014325)" viewBox="0 0 60 59.99999085387324" x="0" y="0" width="60" height="59.999990853873" filtersec="colorsf9414287352" class="image-svg-svg"><g><svg xmlns="http://www.w3.org/2000/svg" xmlns:xlink="http://www.w3.org/1999/xlink" version="1.1" x="0" y="0" viewBox="16.89999771118164 -18 100.10000610351562 100.09999084472656" enable-background="new 17 -18 100 100" xml:space="preserve" width="60" height="59.99999085387324"><path d="M90.2-12.3c-3.6-2.1-3.6-2.1-5.7,1.5l-2.1,3.6c-2.1,3.7-2.1,3.7,1.5,5.8l3.7,2.1c3.6,2.1,3.6,2.1,5.7-1.6l2.1-3.6  c2.1-3.6,2.1-3.6-1.5-5.7L90.2-12.3z M112.8,25.8h-4.2c-4.2,0-4.2,0-4.2,4.2v4.2c0,4.2,0,4.2,4.2,4.2h4.2c4.2,0,4.2,0,4.2-4.2v-4.2  C117,25.8,117,25.8,112.8,25.8z M69.1-18h-4.2c-4.2,0-4.2,0-4.2,4.2v4.2c0,4.2,0,4.2,4.2,4.2h4.2c4.2,0,4.2,0,4.2-4.2v-4.2  C73.2-18,73.2-18,69.1-18z M43.8-12.3l-3.7,2.1c-3.6,2.1-3.6,2.1-1.5,5.7L40.8-1c2.1,3.7,2.1,3.7,5.7,1.6l3.7-2.1  c3.6-2.1,3.6-2.1,1.5-5.8l-2.1-3.6C47.4-14.4,47.4-14.4,43.8-12.3z M106.2,47.4c-3.7-2.1-3.7-2.1-5.8,1.5l-2.1,3.7  c-2.1,3.6-2.1,3.6,1.6,5.7l3.6,2.1c3.6,2.1,3.6,2.1,5.7-1.5l2.1-3.7c2.1-3.6,2.1-3.6-1.5-5.7L106.2,47.4z M87.6,63.4l-3.7,2.1  c-3.6,2.1-3.6,2.1-1.5,5.8l2.1,3.6c2.1,3.6,2.1,3.6,5.7,1.5l3.7-2.1c3.6-2.1,3.6-2.1,1.5-5.7L93.2,65C91.2,61.3,91.2,61.3,87.6,63.4  z M30.4,3.7c-3.6-2.1-3.6-2.1-5.7,1.5l-2.1,3.7c-2.1,3.6-2.1,3.6,1.5,5.7l3.6,2.1c3.7,2.1,3.7,2.1,5.8-1.5l2.1-3.7  c2.1-3.6,2.1-3.6-1.6-5.7L30.4,3.7z M25.3,25.8h-4.2c-4.2,0-4.2,0-4.2,4.2v4.2c0,4.2,0,4.2,4.2,4.2h4.2c4.2,0,4.2,0,4.2-4.2v-4.2  C29.5,25.8,29.5,25.8,25.3,25.8z M69.1,69.5h-4.2c-4.2,0-4.2,0-4.2,4.2v4.2c0,4.2,0,4.2,4.2,4.2h4.2c4.2,0,4.2,0,4.2-4.2v-4.2  C73.2,69.5,73.2,69.5,69.1,69.5z M27.8,47.4l-3.6,2.1c-3.6,2.1-3.6,2.1-1.5,5.7l2.1,3.7c2.1,3.6,2.1,3.6,5.7,1.5l3.6-2.1  c3.7-2.1,3.7-2.1,1.6-5.7l-2.1-3.7C31.4,45.3,31.4,45.3,27.8,47.4z M46.4,63.4c-3.6-2.1-3.6-2.1-5.7,1.6l-2.1,3.6  c-2.1,3.6-2.1,3.6,1.5,5.7l3.7,2.1c3.6,2.1,3.6,2.1,5.7-1.5l2.1-3.6c2.1-3.7,2.1-3.7-1.5-5.8L46.4,63.4z M103.6,3.7L100,5.8  c-3.7,2.1-3.7,2.1-1.6,5.7l2.1,3.7c2.1,3.6,2.1,3.6,5.8,1.5l3.6-2.1c3.6-2.1,3.6-2.1,1.5-5.7l-2.1-3.7  C107.2,1.6,107.2,1.6,103.6,3.7z"></path></svg><g transform="translate(19.237499999999997,15.15999542693662)" stroke-width="2.2" stroke="red"><g transform="translate(0, 0)"><g><path d="M12.46-16.87L21.91 1.09L24.05-0.07L13.69-19.74L16.94-27.44L14.67-28.42L2.52 0.28L4.76 1.26Z" transform="translate(-2.52, 28.42)"></path></g></g></g></g></svg> <defs><filter id="colors4908014325"><feColorMatrix type="matrix" values="0 0 0 0 0.99609375  0 0 0 0 0.99609375  0 0 0 0 0.99609375  0 0 0 1 0" class="icon-fecolormatrix"></feColorMatrix></filter> <filter id="colorsf9414287352"><feColorMatrix type="matrix" values="0 0 0 0 0.99609375  0 0 0 0 0.99609375  0 0 0 0 0.99609375  0 0 0 1 0" class="icon-fecolormatrix"></feColorMatrix></filter> <filter id="colorsb429399639"><feColorMatrix type="matrix" values="0 0 0 0 0  0 0 0 0 0  0 0 0 0 0  0 0 0 1 0" class="icon-fecolormatrix"></feColorMatrix></filter></defs></g> <g transform="translate(0,66.99999237060547)" mask="url(#0746de97-0546-4dd7-a503-7608e33ed88e)"><g fill-rule="" class="tp-name iconsvg-namesvg" transform="translate(0,0)"><g><path d="M16.02-21.69L28.17 1.40L30.91-0.09L17.59-25.38L21.78-35.28L18.86-36.54L3.24 0.36L6.12 1.62ZM53.64-1.35L53.19-4.46L43.38-3.06L43.38-11.79L54.41-11.79C55.75-6.34 57.60-1.03 59.63 3.24L62.46 1.89C60.61-1.98 58.95-6.79 57.64-11.79L63.45-11.79L63.45-14.94L56.88-14.94C56.34-17.37 55.94-19.80 55.62-22.14L61.33-22.14L61.33-34.47L40.23-34.47L40.23 0.58ZM43.38-31.32L58.19-31.32L58.19-25.29L43.38-25.29ZM52.38-22.14C52.70-19.80 53.14-17.37 53.69-14.94L43.38-14.94L43.38-22.14ZM97.20-34.52L71.55-34.52L71.55 2.70L74.70 2.70L74.70-31.36L94.05-31.36L94.05 2.70L97.20 2.70ZM93.60-6.79L90.36-14.26C91.48-18.95 92.47-23.94 93.15-28.08L90.05-28.57C89.55-25.74 88.97-22.50 88.25-19.21L85.72-25.15L84.38-24.57C84.60-25.92 84.78-27.13 84.91-28.21L81.81-28.57C81.50-26.05 80.95-22.81 80.28-19.35L77.85-25.11L74.97-23.89L79.11-14.04C78.08-9.86 76.91-5.80 75.64-3.01L78.53-1.71C79.47-3.78 80.33-6.43 81.14-9.27L82.71-5.54L85.05-6.48C84.60-5.08 84.19-3.87 83.79-2.92L86.67-1.71C87.44-3.51 88.29-6.17 89.10-9.27L90.72-5.54ZM82.39-14.31C82.98-16.74 83.43-19.17 83.84-21.42L87.08-13.99C86.49-11.61 85.91-9.36 85.32-7.42ZM114.75-8.37C115.83-9.13 116.86-9.90 117.86-10.75L117.86 1.26L129.28 1.26L129.28-10.93L118.03-10.93C120.24-12.78 122.13-14.80 123.70-16.96C126.36-14.04 129.28-11.43 132.48-9.27L134.28-11.88C131.09-14.04 128.12-16.70 125.50-19.66C127.58-23.13 129.01-26.95 129.69-31.09L130.00-32.89L121.77-32.89L123.48-36.31L120.64-37.66L114.57-25.38L111.60-26.50L109.89-22.14L107.01-23.80L111.73-35.32L108.81-36.54L103.05-22.41L108.77-19.17L105.93-11.92L101.97-10.57L103.00-7.60L113.27-11.16L112.95-10.93ZM117.81-24.84C118.98-22.95 120.24-21.11 121.63-19.39C119.79-16.79 117.50-14.40 114.75-12.24L113.89-14.71L109.80-13.28L113.58-22.90L116.23-21.60ZM114.97-3.19L113.94-6.17L102.19-2.02L103.23 0.94ZM121.00-7.79L126.13-7.79L126.13-1.89L121.00-1.89ZM123.39-22.23C121.95-24.12 120.64-26.14 119.47-28.21L120.24-29.74L126.22-29.74C125.59-27.09 124.69-24.57 123.39-22.23Z" transform="translate(-3.24, 37.665)"></path></g> <!----> <!----> <!----> <!----> <!----> <!----> <g fill="#cc3333" transform="translate(134.0399932861328,0)"></g></g> <g fill-rule="" hollow-target="t-name" class="tp-slogan iconsvg-slogansvg" fill="#ffffff" transform="translate(0,47.900001525878906)"><rect x="0" height="1" y="4.990000247955322" width="5.999996185302734"></rect> <rect height="1" y="4.990000247955322" width="5.999996185302734" x="125.03999710083008"></rect> <g transform="translate(8.999996185302734,0)"><path d="M7.92-9.20L1.08-9.20L1.08 0.72L1.92 0.72L1.92-8.36L7.08-8.36L7.08 0.72L7.92 0.72ZM6.96-1.81L6.10-3.80C6.40-5.05 6.66-6.38 6.84-7.49L6.01-7.62C5.88-6.86 5.72-6 5.53-5.12L4.86-6.71L4.50-6.55C4.56-6.91 4.61-7.24 4.64-7.52L3.82-7.62C3.73-6.95 3.59-6.08 3.41-5.16L2.76-6.70L1.99-6.37L3.10-3.74C2.82-2.63 2.51-1.55 2.17-0.80L2.94-0.46C3.19-1.01 3.42-1.72 3.64-2.47L4.06-1.48L4.68-1.73C4.56-1.36 4.45-1.03 4.34-0.78L5.11-0.46C5.32-0.94 5.54-1.64 5.76-2.47L6.19-1.48ZM3.97-3.82C4.13-4.46 4.25-5.11 4.36-5.71L5.22-3.73C5.06-3.10 4.91-2.50 4.75-1.98ZM12.60-2.23C12.89-2.44 13.16-2.64 13.43-2.87L13.43 0.34L16.48 0.34L16.48-2.92L13.48-2.92C14.06-3.41 14.57-3.95 14.99-4.52C15.70-3.74 16.48-3.05 17.33-2.47L17.81-3.17C16.96-3.74 16.16-4.45 15.47-5.24C16.02-6.17 16.40-7.19 16.58-8.29L16.67-8.77L14.47-8.77L14.93-9.68L14.17-10.04L12.55-6.77L11.76-7.07L11.30-5.90L10.54-6.35L11.80-9.42L11.02-9.74L9.48-5.98L11.00-5.11L10.25-3.18L9.19-2.82L9.47-2.03L12.20-2.98L12.12-2.92ZM13.42-6.62C13.73-6.12 14.06-5.63 14.44-5.17C13.94-4.48 13.33-3.84 12.60-3.26L12.37-3.92L11.28-3.54L12.29-6.11L13.00-5.76ZM12.66-0.85L12.38-1.64L9.25-0.54L9.53 0.25ZM14.27-2.08L15.64-2.08L15.64-0.50L14.27-0.50ZM14.90-5.93C14.52-6.43 14.17-6.97 13.86-7.52L14.06-7.93L15.66-7.93C15.49-7.22 15.25-6.55 14.90-5.93ZM25.80-5.98L22.87-5.98L22.87-9.96L22.03-9.96L22.03-5.98L19.10-5.98L19.10-5.14L22.03-5.14L22.03-0.77L18.55-0.77L18.55 0.07L26.36 0.07L26.36-0.77L22.87-0.77L22.87-5.14L25.80-5.14ZM35.26-6.71L33.62-6.41L33.62-9.94L32.78-9.94L32.78-6.25L32.00-6.11L32.00-9.02L31.16-9.02L31.16-5.96L30.32-5.81L30.48-4.98L31.16-5.10L31.16 0.25L35.64 0.25L35.64-0.59L32.00-0.59L32.00-5.26L32.78-5.40L32.78-1.58L33.62-1.58L33.62-5.56L34.42-5.70L34.42-2.41L35.26-2.41ZM30.25-6.62L29.33-6.62L29.33-9.72L28.49-9.72L28.49-6.62L27.42-6.62L27.42-5.78L28.49-5.78L28.49-2.44L27.22-2.38L27.26-1.54L30.52-1.69L30.48-2.53L29.33-2.47L29.33-5.78L30.25-5.78ZM40.79-1.20L44.30-1.20L44.30-2.04L40.79-2.04L40.79-2.96L43.18-2.96L43.18-5.65L40.79-5.65L40.79-6.37L42.56-6.37L42.56-8.10L44.20-8.10L44.20-8.94L42.56-8.94L42.56-9.94L41.72-9.94L41.72-8.94L39-8.94L39-9.94L38.16-9.94L38.16-8.94L36.49-8.94L36.49-8.10L38.16-8.10L38.16-6.37L39.95-6.37L39.95-5.65L37.52-5.65L37.52-2.96L39.95-2.96L39.95-2.04L36.40-2.04L36.40-1.20L39.95-1.20L39.95 0.71L40.79 0.71ZM39-7.21L39-8.10L41.72-8.10L41.72-7.21ZM38.36-4.81L39.95-4.81L39.95-3.80L38.36-3.80ZM40.79-3.80L40.79-4.81L42.34-4.81L42.34-3.80ZM48.98-4.21L46.33-4.21L46.33-0.67L48.98-0.67ZM53.70-6.12L49.57-9.53L45.41-6.23L45.94-5.58L49.56-8.45L53.17-5.47ZM50.70-3.37L51.83-3.37L51.83-0.32L52.67-0.32L52.67-4.21L49.86-4.21L49.86 0.70L50.70 0.70ZM51.78-6.08L47.24-6.08L47.24-5.24L51.78-5.24ZM47.17-3.37L48.14-3.37L48.14-1.51L47.17-1.51ZM56.88-4.84L56.88-3.67L57.78-3.67L57.78-4.84ZM62.30-2.94L62.30 0.71L63.14 0.71L63.14-3.16L64.43-3.50L64.21-4.32L63.14-4.03L63.14-6.71L64.20-6.71L64.20-7.55L63.14-7.55L63.14-9.83L62.30-9.83L62.30-7.55L61.10-7.55L61.10-6.71L62.30-6.71L62.30-3.80L60.91-3.43L61.13-2.63ZM69.36-9.06L64.64-9.06L64.64-8.22L66.58-8.22L66.58 0.72L67.42 0.72L67.42-8.22L69.36-8.22ZM71.28-6.13L71.28 0.71L72.12 0.71L72.12-8.35L72.65-9.74L71.86-10.04L69.78-4.57L70.57-4.27ZM78.01-9.71L77.17-9.71L77.17 0.71L78.01 0.71ZM76.63-9.71L75.79-9.71L75.79 0.02L76.63 0.02ZM75.44-9.26L72.56-9.26L72.56-8.42L73.09-8.42L72.49-5.76L75.65-5.76L75.16-8.03L74.34-7.85L74.60-6.60L73.55-6.60L73.97-8.42L75.44-8.42ZM75.38-3.68L74.42-3.68L74.42-5.28L73.58-5.28L73.58-3.68L72.61-3.68L72.61-2.84L73.58-2.84L73.58-1.13L72.49-1.04L72.55-0.22L75.50-0.44L75.44-1.28L74.42-1.20L74.42-2.84L75.38-2.84ZM80.90-6.08L80.90-4.69L80.64-4.79L80.23-3.61L78.98-3.61L78.98-2.77L79.96-2.77L79.60-1.70L80.75-1.01C80.22-0.62 79.61-0.35 78.97-0.30L79.04 0.53C79.96 0.46 80.81 0.02 81.50-0.55L82.61 0.12L83.05-0.59L82.12-1.15C82.58-1.68 82.92-2.26 83.05-2.77L83.60-2.77L83.60-3.38L83.68-3.37L83.95-4.40C84.17-3.76 84.43-3.08 84.72-2.44C84.34-1.57 83.83-0.73 83.20 0.02L83.84 0.56C84.35-0.04 84.79-0.72 85.18-1.45C85.60-0.61 86.03 0.10 86.40 0.54L87.05 0C86.63-0.49 86.12-1.40 85.64-2.44C86.21-3.78 86.56-5.24 86.64-6.70L87.31-6.70L87.31-7.54L84.80-7.54L85.43-9.80L84.61-10.03L82.86-3.61L81.12-3.61L81.43-4.52L81.18-4.61L81.74-4.61L81.74-6.08L82.63-5.05L83.27-5.59L82.07-7.00L83.54-7.00L83.54-7.84L82.92-7.84L83.30-9.55L82.49-9.73L82.07-7.84L81.74-7.84L81.74-10.04L80.90-10.04L80.90-7.84L80.58-7.84L80.14-9.74L79.32-9.55L79.73-7.84L78.96-7.84L78.96-7.00L80.58-7.00L78.80-5.02L79.43-4.45ZM85.16-3.56C84.83-4.43 84.54-5.29 84.38-5.99L84.58-6.70L85.80-6.70C85.74-5.76 85.55-4.68 85.16-3.56ZM82.18-2.77C82.04-2.40 81.77-1.98 81.41-1.58L80.60-2.08L80.83-2.77ZM92.20-6.38L95.56-6.38L95.56-9.26L91.46-9.26L91.07 0.66L91.91 0.70ZM95.93-4.78L94.58-4.78L94.58-5.84L93.74-5.84L93.74-4.78L92.48-4.78L92.48-3.94L93.74-3.94L93.74-2.64L92.83-2.64L92.83 0.38L95.51 0.38L95.51-2.64L94.58-2.64L94.58-3.94L95.93-3.94ZM90.74-7.51L89.87-7.51L89.87-9.68L89.03-9.68L89.03-7.51L88.04-7.51L88.04-6.67L89.03-6.67L89.03-3.89L87.79-3.53L88.03-2.72L89.03-3.02L89.03 0.73L89.87 0.73L89.87-3.28L90.89-3.58L90.65-4.38L89.87-4.14L89.87-6.67L90.74-6.67ZM92.27-8.42L94.72-8.42L94.72-7.22L92.22-7.22ZM93.67-1.80L94.67-1.80L94.67-0.46L93.67-0.46ZM101.23-5.10L100.66-5.10L100.66-5.45L99.82-5.45L99.82-5.10L98.83-5.10L98.83-5.45L97.99-5.45L97.99-5.10L97.24-5.10L97.24-4.26L97.99-4.26L97.99-3.20L98.87-3.20L98.87-3.04L97.44-3.04L97.44-1.21L98.87-1.21L98.87-0.85L97.32-0.85L97.32-0.01L98.87-0.01L98.87 0.89L99.71 0.89L99.71-0.01L101.18-0.01L101.18-0.85L99.71-0.85L99.71-1.21L101.12-1.21L101.12-3.04L99.71-3.04L99.71-3.20L100.66-3.20L100.66-4.26L101.23-4.26ZM104.71-9.61L97.43-9.61L97.43-8.77L100.62-8.77L100.62-8.34L97.64-8.34L97.64-5.62L98.48-5.62L98.48-7.50L100.62-7.50L100.62-5.60L101.46-5.60L101.46-7.50L103.61-7.50L103.61-5.62L104.45-5.62L104.45-8.34L101.46-8.34L101.46-8.77L104.71-8.77ZM104.28-5.24L101.68-5.24L101.68 0.89L102.52 0.89L102.52-0.72L103.44-0.72L103.44 0.89L104.28 0.89ZM102.52-2.60L103.44-2.60L103.44-1.56L102.52-1.56ZM103.13-7.27L102.07-7.27L102.07-6.43L103.13-6.43ZM103.13-6.32L102.07-6.32L102.07-5.48L103.13-5.48ZM103.44-3.44L102.52-3.44L102.52-4.40L103.44-4.40ZM99.97-6.32L98.93-6.32L98.93-5.48L99.97-5.48ZM99.97-7.27L98.93-7.27L98.93-6.43L99.97-6.43ZM98.83-4.04L98.83-4.26L99.82-4.26L99.82-4.04ZM98.28-2.20L98.87-2.20L98.87-2.05L98.28-2.05ZM99.71-2.05L99.71-2.20L100.28-2.20L100.28-2.05ZM108.42-5.27L109.44-2.99L110.21-3.34L108.59-6.95L109.46-6.95L109.46-7.79L108.42-7.79L108.42-10.09L107.58-10.09L107.58-7.79L106.33-7.79L106.33-6.95L107.50-6.95L105.73-2.48L106.51-2.17L107.58-4.86L107.58 0.53L108.42 0.53ZM109.94 0.64C110.72-0.08 111.38-0.90 111.92-1.80C112.44-0.78 113.00 0.11 113.56 0.61L114.12-0.01C113.56-0.52 112.94-1.55 112.43-2.70C113.22-4.33 113.68-6.22 113.77-8.34L113.80-8.78L109.97-8.78L109.97-7.94L112.91-7.94C112.80-6.41 112.49-5.02 111.98-3.77C111.48-5.06 111.13-6.38 111.11-7.24L110.27-7.20C110.30-6.08 110.81-4.33 111.49-2.74C110.94-1.70 110.24-0.78 109.38 0.01Z" transform="translate(-1.08, 10.092)"></path></g></g></g></g><mask id="0746de97-0546-4dd7-a503-7608e33ed88e"><g fill-rule="" class="tp-name iconsvg-namesvg" transform="translate(0,0)" fill="white"><g><path d="M16.02-21.69L28.17 1.40L30.91-0.09L17.59-25.38L21.78-35.28L18.86-36.54L3.24 0.36L6.12 1.62ZM53.64-1.35L53.19-4.46L43.38-3.06L43.38-11.79L54.41-11.79C55.75-6.34 57.60-1.03 59.63 3.24L62.46 1.89C60.61-1.98 58.95-6.79 57.64-11.79L63.45-11.79L63.45-14.94L56.88-14.94C56.34-17.37 55.94-19.80 55.62-22.14L61.33-22.14L61.33-34.47L40.23-34.47L40.23 0.58ZM43.38-31.32L58.19-31.32L58.19-25.29L43.38-25.29ZM52.38-22.14C52.70-19.80 53.14-17.37 53.69-14.94L43.38-14.94L43.38-22.14ZM97.20-34.52L71.55-34.52L71.55 2.70L74.70 2.70L74.70-31.36L94.05-31.36L94.05 2.70L97.20 2.70ZM93.60-6.79L90.36-14.26C91.48-18.95 92.47-23.94 93.15-28.08L90.05-28.57C89.55-25.74 88.97-22.50 88.25-19.21L85.72-25.15L84.38-24.57C84.60-25.92 84.78-27.13 84.91-28.21L81.81-28.57C81.50-26.05 80.95-22.81 80.28-19.35L77.85-25.11L74.97-23.89L79.11-14.04C78.08-9.86 76.91-5.80 75.64-3.01L78.53-1.71C79.47-3.78 80.33-6.43 81.14-9.27L82.71-5.54L85.05-6.48C84.60-5.08 84.19-3.87 83.79-2.92L86.67-1.71C87.44-3.51 88.29-6.17 89.10-9.27L90.72-5.54ZM82.39-14.31C82.98-16.74 83.43-19.17 83.84-21.42L87.08-13.99C86.49-11.61 85.91-9.36 85.32-7.42ZM114.75-8.37C115.83-9.13 116.86-9.90 117.86-10.75L117.86 1.26L129.28 1.26L129.28-10.93L118.03-10.93C120.24-12.78 122.13-14.80 123.70-16.96C126.36-14.04 129.28-11.43 132.48-9.27L134.28-11.88C131.09-14.04 128.12-16.70 125.50-19.66C127.58-23.13 129.01-26.95 129.69-31.09L130.00-32.89L121.77-32.89L123.48-36.31L120.64-37.66L114.57-25.38L111.60-26.50L109.89-22.14L107.01-23.80L111.73-35.32L108.81-36.54L103.05-22.41L108.77-19.17L105.93-11.92L101.97-10.57L103.00-7.60L113.27-11.16L112.95-10.93ZM117.81-24.84C118.98-22.95 120.24-21.11 121.63-19.39C119.79-16.79 117.50-14.40 114.75-12.24L113.89-14.71L109.80-13.28L113.58-22.90L116.23-21.60ZM114.97-3.19L113.94-6.17L102.19-2.02L103.23 0.94ZM121.00-7.79L126.13-7.79L126.13-1.89L121.00-1.89ZM123.39-22.23C121.95-24.12 120.64-26.14 119.47-28.21L120.24-29.74L126.22-29.74C125.59-27.09 124.69-24.57 123.39-22.23Z" transform="translate(-3.24, 37.665)"></path></g>       <g transform="translate(134.0399932861328,0)"></g></g> <rect fill="#000" x="0" y="0" width="135.0399932861328" height="14.980000495910645" transform="translate(-2, 45.900001525878906)"></rect><g fill-rule="" hollow-target="t-name" class="tp-slogan iconsvg-slogansvg" transform="translate(0,47.900001525878906)" fill="#fff"><rect x="0" height="1" y="4.990000247955322" width="5.999996185302734"></rect> <rect height="1" y="4.990000247955322" width="5.999996185302734" x="125.03999710083008"></rect> <g transform="translate(8.999996185302734,0)"><path d="M7.92-9.20L1.08-9.20L1.08 0.72L1.92 0.72L1.92-8.36L7.08-8.36L7.08 0.72L7.92 0.72ZM6.96-1.81L6.10-3.80C6.40-5.05 6.66-6.38 6.84-7.49L6.01-7.62C5.88-6.86 5.72-6 5.53-5.12L4.86-6.71L4.50-6.55C4.56-6.91 4.61-7.24 4.64-7.52L3.82-7.62C3.73-6.95 3.59-6.08 3.41-5.16L2.76-6.70L1.99-6.37L3.10-3.74C2.82-2.63 2.51-1.55 2.17-0.80L2.94-0.46C3.19-1.01 3.42-1.72 3.64-2.47L4.06-1.48L4.68-1.73C4.56-1.36 4.45-1.03 4.34-0.78L5.11-0.46C5.32-0.94 5.54-1.64 5.76-2.47L6.19-1.48ZM3.97-3.82C4.13-4.46 4.25-5.11 4.36-5.71L5.22-3.73C5.06-3.10 4.91-2.50 4.75-1.98ZM12.60-2.23C12.89-2.44 13.16-2.64 13.43-2.87L13.43 0.34L16.48 0.34L16.48-2.92L13.48-2.92C14.06-3.41 14.57-3.95 14.99-4.52C15.70-3.74 16.48-3.05 17.33-2.47L17.81-3.17C16.96-3.74 16.16-4.45 15.47-5.24C16.02-6.17 16.40-7.19 16.58-8.29L16.67-8.77L14.47-8.77L14.93-9.68L14.17-10.04L12.55-6.77L11.76-7.07L11.30-5.90L10.54-6.35L11.80-9.42L11.02-9.74L9.48-5.98L11.00-5.11L10.25-3.18L9.19-2.82L9.47-2.03L12.20-2.98L12.12-2.92ZM13.42-6.62C13.73-6.12 14.06-5.63 14.44-5.17C13.94-4.48 13.33-3.84 12.60-3.26L12.37-3.92L11.28-3.54L12.29-6.11L13.00-5.76ZM12.66-0.85L12.38-1.64L9.25-0.54L9.53 0.25ZM14.27-2.08L15.64-2.08L15.64-0.50L14.27-0.50ZM14.90-5.93C14.52-6.43 14.17-6.97 13.86-7.52L14.06-7.93L15.66-7.93C15.49-7.22 15.25-6.55 14.90-5.93ZM25.80-5.98L22.87-5.98L22.87-9.96L22.03-9.96L22.03-5.98L19.10-5.98L19.10-5.14L22.03-5.14L22.03-0.77L18.55-0.77L18.55 0.07L26.36 0.07L26.36-0.77L22.87-0.77L22.87-5.14L25.80-5.14ZM35.26-6.71L33.62-6.41L33.62-9.94L32.78-9.94L32.78-6.25L32.00-6.11L32.00-9.02L31.16-9.02L31.16-5.96L30.32-5.81L30.48-4.98L31.16-5.10L31.16 0.25L35.64 0.25L35.64-0.59L32.00-0.59L32.00-5.26L32.78-5.40L32.78-1.58L33.62-1.58L33.62-5.56L34.42-5.70L34.42-2.41L35.26-2.41ZM30.25-6.62L29.33-6.62L29.33-9.72L28.49-9.72L28.49-6.62L27.42-6.62L27.42-5.78L28.49-5.78L28.49-2.44L27.22-2.38L27.26-1.54L30.52-1.69L30.48-2.53L29.33-2.47L29.33-5.78L30.25-5.78ZM40.79-1.20L44.30-1.20L44.30-2.04L40.79-2.04L40.79-2.96L43.18-2.96L43.18-5.65L40.79-5.65L40.79-6.37L42.56-6.37L42.56-8.10L44.20-8.10L44.20-8.94L42.56-8.94L42.56-9.94L41.72-9.94L41.72-8.94L39-8.94L39-9.94L38.16-9.94L38.16-8.94L36.49-8.94L36.49-8.10L38.16-8.10L38.16-6.37L39.95-6.37L39.95-5.65L37.52-5.65L37.52-2.96L39.95-2.96L39.95-2.04L36.40-2.04L36.40-1.20L39.95-1.20L39.95 0.71L40.79 0.71ZM39-7.21L39-8.10L41.72-8.10L41.72-7.21ZM38.36-4.81L39.95-4.81L39.95-3.80L38.36-3.80ZM40.79-3.80L40.79-4.81L42.34-4.81L42.34-3.80ZM48.98-4.21L46.33-4.21L46.33-0.67L48.98-0.67ZM53.70-6.12L49.57-9.53L45.41-6.23L45.94-5.58L49.56-8.45L53.17-5.47ZM50.70-3.37L51.83-3.37L51.83-0.32L52.67-0.32L52.67-4.21L49.86-4.21L49.86 0.70L50.70 0.70ZM51.78-6.08L47.24-6.08L47.24-5.24L51.78-5.24ZM47.17-3.37L48.14-3.37L48.14-1.51L47.17-1.51ZM56.88-4.84L56.88-3.67L57.78-3.67L57.78-4.84ZM62.30-2.94L62.30 0.71L63.14 0.71L63.14-3.16L64.43-3.50L64.21-4.32L63.14-4.03L63.14-6.71L64.20-6.71L64.20-7.55L63.14-7.55L63.14-9.83L62.30-9.83L62.30-7.55L61.10-7.55L61.10-6.71L62.30-6.71L62.30-3.80L60.91-3.43L61.13-2.63ZM69.36-9.06L64.64-9.06L64.64-8.22L66.58-8.22L66.58 0.72L67.42 0.72L67.42-8.22L69.36-8.22ZM71.28-6.13L71.28 0.71L72.12 0.71L72.12-8.35L72.65-9.74L71.86-10.04L69.78-4.57L70.57-4.27ZM78.01-9.71L77.17-9.71L77.17 0.71L78.01 0.71ZM76.63-9.71L75.79-9.71L75.79 0.02L76.63 0.02ZM75.44-9.26L72.56-9.26L72.56-8.42L73.09-8.42L72.49-5.76L75.65-5.76L75.16-8.03L74.34-7.85L74.60-6.60L73.55-6.60L73.97-8.42L75.44-8.42ZM75.38-3.68L74.42-3.68L74.42-5.28L73.58-5.28L73.58-3.68L72.61-3.68L72.61-2.84L73.58-2.84L73.58-1.13L72.49-1.04L72.55-0.22L75.50-0.44L75.44-1.28L74.42-1.20L74.42-2.84L75.38-2.84ZM80.90-6.08L80.90-4.69L80.64-4.79L80.23-3.61L78.98-3.61L78.98-2.77L79.96-2.77L79.60-1.70L80.75-1.01C80.22-0.62 79.61-0.35 78.97-0.30L79.04 0.53C79.96 0.46 80.81 0.02 81.50-0.55L82.61 0.12L83.05-0.59L82.12-1.15C82.58-1.68 82.92-2.26 83.05-2.77L83.60-2.77L83.60-3.38L83.68-3.37L83.95-4.40C84.17-3.76 84.43-3.08 84.72-2.44C84.34-1.57 83.83-0.73 83.20 0.02L83.84 0.56C84.35-0.04 84.79-0.72 85.18-1.45C85.60-0.61 86.03 0.10 86.40 0.54L87.05 0C86.63-0.49 86.12-1.40 85.64-2.44C86.21-3.78 86.56-5.24 86.64-6.70L87.31-6.70L87.31-7.54L84.80-7.54L85.43-9.80L84.61-10.03L82.86-3.61L81.12-3.61L81.43-4.52L81.18-4.61L81.74-4.61L81.74-6.08L82.63-5.05L83.27-5.59L82.07-7.00L83.54-7.00L83.54-7.84L82.92-7.84L83.30-9.55L82.49-9.73L82.07-7.84L81.74-7.84L81.74-10.04L80.90-10.04L80.90-7.84L80.58-7.84L80.14-9.74L79.32-9.55L79.73-7.84L78.96-7.84L78.96-7.00L80.58-7.00L78.80-5.02L79.43-4.45ZM85.16-3.56C84.83-4.43 84.54-5.29 84.38-5.99L84.58-6.70L85.80-6.70C85.74-5.76 85.55-4.68 85.16-3.56ZM82.18-2.77C82.04-2.40 81.77-1.98 81.41-1.58L80.60-2.08L80.83-2.77ZM92.20-6.38L95.56-6.38L95.56-9.26L91.46-9.26L91.07 0.66L91.91 0.70ZM95.93-4.78L94.58-4.78L94.58-5.84L93.74-5.84L93.74-4.78L92.48-4.78L92.48-3.94L93.74-3.94L93.74-2.64L92.83-2.64L92.83 0.38L95.51 0.38L95.51-2.64L94.58-2.64L94.58-3.94L95.93-3.94ZM90.74-7.51L89.87-7.51L89.87-9.68L89.03-9.68L89.03-7.51L88.04-7.51L88.04-6.67L89.03-6.67L89.03-3.89L87.79-3.53L88.03-2.72L89.03-3.02L89.03 0.73L89.87 0.73L89.87-3.28L90.89-3.58L90.65-4.38L89.87-4.14L89.87-6.67L90.74-6.67ZM92.27-8.42L94.72-8.42L94.72-7.22L92.22-7.22ZM93.67-1.80L94.67-1.80L94.67-0.46L93.67-0.46ZM101.23-5.10L100.66-5.10L100.66-5.45L99.82-5.45L99.82-5.10L98.83-5.10L98.83-5.45L97.99-5.45L97.99-5.10L97.24-5.10L97.24-4.26L97.99-4.26L97.99-3.20L98.87-3.20L98.87-3.04L97.44-3.04L97.44-1.21L98.87-1.21L98.87-0.85L97.32-0.85L97.32-0.01L98.87-0.01L98.87 0.89L99.71 0.89L99.71-0.01L101.18-0.01L101.18-0.85L99.71-0.85L99.71-1.21L101.12-1.21L101.12-3.04L99.71-3.04L99.71-3.20L100.66-3.20L100.66-4.26L101.23-4.26ZM104.71-9.61L97.43-9.61L97.43-8.77L100.62-8.77L100.62-8.34L97.64-8.34L97.64-5.62L98.48-5.62L98.48-7.50L100.62-7.50L100.62-5.60L101.46-5.60L101.46-7.50L103.61-7.50L103.61-5.62L104.45-5.62L104.45-8.34L101.46-8.34L101.46-8.77L104.71-8.77ZM104.28-5.24L101.68-5.24L101.68 0.89L102.52 0.89L102.52-0.72L103.44-0.72L103.44 0.89L104.28 0.89ZM102.52-2.60L103.44-2.60L103.44-1.56L102.52-1.56ZM103.13-7.27L102.07-7.27L102.07-6.43L103.13-6.43ZM103.13-6.32L102.07-6.32L102.07-5.48L103.13-5.48ZM103.44-3.44L102.52-3.44L102.52-4.40L103.44-4.40ZM99.97-6.32L98.93-6.32L98.93-5.48L99.97-5.48ZM99.97-7.27L98.93-7.27L98.93-6.43L99.97-6.43ZM98.83-4.04L98.83-4.26L99.82-4.26L99.82-4.04ZM98.28-2.20L98.87-2.20L98.87-2.05L98.28-2.05ZM99.71-2.05L99.71-2.20L100.28-2.20L100.28-2.05ZM108.42-5.27L109.44-2.99L110.21-3.34L108.59-6.95L109.46-6.95L109.46-7.79L108.42-7.79L108.42-10.09L107.58-10.09L107.58-7.79L106.33-7.79L106.33-6.95L107.50-6.95L105.73-2.48L106.51-2.17L107.58-4.86L107.58 0.53L108.42 0.53ZM109.94 0.64C110.72-0.08 111.38-0.90 111.92-1.80C112.44-0.78 113.00 0.11 113.56 0.61L114.12-0.01C113.56-0.52 112.94-1.55 112.43-2.70C113.22-4.33 113.68-6.22 113.77-8.34L113.80-8.78L109.97-8.78L109.97-7.94L112.91-7.94C112.80-6.41 112.49-5.02 111.98-3.77C111.48-5.06 111.13-6.38 111.11-7.24L110.27-7.20C110.30-6.08 110.81-4.33 111.49-2.74C110.94-1.70 110.24-0.78 109.38 0.01Z" transform="translate(-1.08, 10.092)"></path></g></g></mask></svg>
